<svg id="Camada_1" data-name="Camada 1" xmlns="http://www.w3.org/2000/svg" viewBox="0 0 1080 258"><defs><style>.cls-1{fill:#fff;}</style></defs><path class="cls-1" d="M117,120.16a25.36,25.36,0,0,0,1,6.42l1.33,5.11,62-16.2a64,64,0,0,0-11.83-25.56l-38.1,10C123.31,102.46,117,110.77,117,120.16Z"/><path class="cls-1" d="M124.65,152.15l10.25,39.24a64.49,64.49,0,0,0,47.44-54.31Z"/><path class="cls-1" d="M96,125.85A46.18,46.18,0,0,1,94.13,114a34,34,0,0,1,25.73-33l30.36-7.9a64.41,64.41,0,1,0-36.68,120.24L97.1,130.18C96.76,128.76,96.36,127.3,96,125.85Z"/><path class="cls-1" d="M358.3,147.81H345.75V135.27H358.3Z"/><path class="cls-1" d="M627.11,166.63H602v12.54h87.2V129H627.11V116.46h62.11V103.91H602v32.44h12.54v12.71h49.57v17.57Z"/><polygon class="cls-1" points="776.38 103.91 776.38 116.46 788.92 116.46 788.92 166.63 776.38 166.63 776.38 179.17 826.55 179.17 826.55 166.63 814.02 166.63 814.02 116.46 839.09 116.46 839.09 129 851.63 129 851.64 116.46 851.64 103.91 776.38 103.91"/><path class="cls-1" d="M395.9,103.91H295.61v12.55h12.48v62.71H396V103.91Zm-62.66,62.72V116.46h37.58v50.17Z"/><path class="cls-1" d="M421,116.46v62.71h62.77l0-12.54H446.14V116.46h37.58V103.91H421Z"/><path class="cls-1" d="M258,91.37v25.09h18.81V129H258v50.17H232.89V129H220.35V116.46h12.54V78.83h50.17V91.37Z"/><path class="cls-1" d="M764.15,166.63v12.54H714V116.46H701.44V103.91H714V78.83h25.08v25.08h18.81v12.55H739.07v50.17Z"/><path class="cls-1" d="M1026,166.63v12.54H975.83V116.46H963.29V103.91h12.54V78.83h25.09v25.08h18.81v12.55h-18.81v50.17Z"/><path class="cls-1" d="M951.06,179.17H876.4V166.63H863.86V129h62.72V116.46H863.86V103.91h87.2Zm-24.48-12.54V141.54H889v25.09Z"/><path class="cls-1" d="M586.51,179.17H511.28V116.46H498.74V103.91h37.63v62.72H574V103.91h12.52Z"/></svg>